<svg xmlns="http://www.w3.org/2000/svg" xmlns:xlink="http://www.w3.org/1999/xlink" width="127" height="73" viewBox="0 0 127 73"><defs><clipPath id="clip-path"><rect id="Rect&#xE1;ngulo_2142" data-name="Rect&#xE1;ngulo 2142" width="127" height="73" transform="translate(0.322 -0.112)" fill="none" stroke="#707070" stroke-width="1"></rect></clipPath></defs><g id="Logo-EA" transform="translate(-0.322 0.111)" clip-path="url(#clip-path)"><g id="Grupo_5386" data-name="Grupo 5386" transform="translate(28.322 0.412)"><path id="Trazado_22105" data-name="Trazado 22105" d="M71.957,36.2h0c0-.219,0-.437,0-.656,0-.071,0-.141,0-.212v-.008q-.014-.8-.064-1.6c0-.038,0-.076-.007-.115,0-.056-.007-.111-.01-.167s-.011-.138-.016-.207-.011-.132-.017-.2l-.013-.159c-.012-.136-.022-.271-.035-.407v0c-.009-.094-.021-.189-.031-.283v-.011q-.056-.531-.129-1.063l-.007-.055v-.01c-.012-.09-.023-.18-.036-.27h0c-.014-.093-.03-.187-.044-.28l-.018-.113q-.074-.467-.16-.933c0-.023-.009-.046-.013-.069-.017-.092-.033-.185-.051-.278v-.005c-.016-.082-.034-.165-.051-.247l0-.024c-.013-.065-.027-.13-.041-.195-.018-.085-.035-.17-.053-.255-.007-.034-.014-.068-.022-.1h0q-.089-.4-.188-.808l0-.015h0q-.033-.134-.067-.268v-.005l-.033-.126q-.113-.439-.237-.876l-.024-.084c-.026-.09-.051-.18-.078-.27l-.021-.073c-.019-.065-.038-.13-.058-.195v0c-.008-.027-.017-.053-.025-.08q-.13-.424-.271-.845l-.05-.146c-.022-.065-.045-.13-.067-.2-.068-.2-.136-.392-.208-.587l0-.014-.009-.023q-.174-.475-.362-.946l-.034-.085c-.035-.088-.069-.175-.105-.262v0q-.253-.616-.532-1.227l-.021-.045v0l-.059-.128-.069-.151-.046-.1c-.025-.052-.048-.105-.073-.157h0l-.02-.04q-.218-.456-.45-.908l-.039-.075c-.044-.085-.089-.17-.133-.255l-.056-.107q-.134-.252-.272-.5l-.083-.149-.1-.172-.045-.081c-.03-.053-.059-.107-.089-.16-.018-.031-.036-.061-.054-.091-.049-.084-.1-.167-.147-.25l-.009-.015c-.112-.191-.224-.38-.34-.568l-.015-.025c-.029-.047-.059-.094-.088-.142l-.038-.06c-.072-.116-.144-.233-.217-.348l-.006-.009h0l-.049-.078h0c-.053-.083-.109-.164-.163-.247l-.137-.207-.026-.039c-.049-.073-.1-.147-.146-.22q-.227-.335-.461-.664l-.067-.1v0c-.116-.162-.234-.321-.352-.48l-.007-.009c-.06-.081-.119-.163-.179-.244l0,0c-.149-.2-.3-.393-.454-.587l-.053-.069-.014-.017c-.1-.128-.2-.254-.307-.38l-.029-.035-.038-.047c-.085-.1-.17-.21-.256-.314h0l-.031-.037-.112-.13-.064-.074-.2-.229,0,0q-.182-.21-.368-.417l-.065-.073-.112-.124c-.108-.119-.216-.239-.326-.356-.058-.062-.117-.123-.175-.185l-.036-.038-.065-.069c-.059-.063-.118-.126-.179-.188l-.015-.016-.052-.055h0c-.055-.057-.112-.111-.167-.168l-.182-.183-.012-.012c-.095-.095-.189-.191-.285-.284l0,0-.051-.048c-.066-.064-.134-.127-.2-.191l-.118-.112q-.312-.3-.631-.583l-.1-.09h0q-.174-.155-.348-.308h0L59.5,8.747q-.277-.239-.557-.472h0l-.282-.232q-.2-.166-.411-.328l-.006,0c-.116-.091-.233-.183-.35-.273h0c-.114-.088-.229-.174-.345-.26l0,0-.259-.192q-.218-.16-.438-.317h0l-.1-.068q-.3-.211-.6-.416h0q-.174-.118-.349-.234h0q-.171-.113-.344-.223l0,0-.314-.2q-.309-.194-.62-.38L54.4,5.071l0,0q-.209-.124-.419-.246L53.7,4.666l-.013-.007c-.111-.063-.222-.127-.334-.188l0,0-.223-.12q-.381-.206-.767-.4l-.058-.03c-.116-.059-.232-.119-.349-.177h0q-.517-.256-1.042-.494l0,0-.279-.125c-.343-.153-.689-.3-1.037-.443L49.5,2.641h0c-.112-.045-.225-.088-.338-.132l-.011,0-.35-.137h0A36.168,36.168,0,0,0,39.244.151h-.008Q38.79.109,38.342.079L38.259.074q-.411-.027-.823-.044l-.129,0Q36.916.011,36.525,0l-.157,0q-.379,0-.758,0l-.172,0q-.375.005-.75.019l-.175.006c-.251.01-.5.023-.754.038l-.169.01Q33.2.1,32.814.137l-.142.012q-.42.039-.841.087l-.074.008q-1.392.164-2.779.438L28.888.7q-.4.081-.806.171l-.234.055c-.22.051-.441.1-.66.159l-.3.078c-.2.052-.4.1-.593.16l-.332.1q-.278.081-.556.166l-.352.111q-.268.085-.534.175L24.158,2q-.26.091-.519.186l-.369.138q-.256.1-.51.2c-.124.049-.247.1-.371.149-.169.069-.338.141-.506.213-.122.052-.245.1-.367.158-.17.075-.339.152-.509.23-.119.055-.239.109-.357.165-.175.083-.349.168-.524.254-.112.055-.224.109-.335.165-.191.1-.38.2-.57.3-.094.049-.188.1-.282.148q-.423.228-.844.468c.273-.156-.3.177-.451.266l-.184.109,0,0q-.528.317-1.042.649h0l-.178.117c-.174.114-.348.228-.52.345h0c-.118.08-.233.163-.35.244l-.244.17q-.345.245-.682.5l-.122.09h0q-.533.4-1.045.819l0,0-.088.072q-.306.25-.6.505l-.007.006c-.117.1-.234.2-.349.3h0l-.188.168,0,0-.158.142-.012.011c-.093.084-.187.167-.279.252l-.031.028-.027.025h0c-.084.078-.165.157-.248.235l-.1.1-.093.088-.013.013c-.078.075-.158.15-.236.226l-.007.007c-.07.069-.139.139-.208.208l-.094.093q-.231.231-.458.466l-.132.139-.1.105c-.116.123-.232.246-.346.37h0l-.021.023c-.131.142-.261.284-.388.428l-.03.033,0,0c-.141.159-.278.32-.416.481l-.009.01h0c-.071.083-.142.165-.212.249h0l-.007.008c-.056.066-.11.134-.165.2l-.035.043-.171.209L8,13.354q-.182.226-.36.454l-.055.07c-.067.086-.135.171-.2.258h0l-.057.075h0l-.047.064c-.1.128-.192.258-.287.387l-.015.02,0,0q-.131.179-.26.359l-.086.122-.013.018-.107.152q-.185.265-.366.533l-.079.118c-.045.067-.091.134-.135.2l-.046.068,0,0c-.088.135-.174.271-.26.407l-.042.066L5.54,16.8q-.132.21-.261.42l-.05.083-.027.044c-.11.182-.219.363-.325.547l-.01.018c-.035.059-.068.119-.1.178-.051.088-.1.177-.151.265l-.065.115-.017.029c-.062.113-.123.227-.184.34l-.1.193-.064.119-.009.017c-.09.171-.178.343-.266.516l-.075.148-.006.012c-.054.108-.109.216-.162.325h0l-.006.014c-.083.17-.164.342-.245.514l-.022.046h0q-.067.143-.132.286h0c-.035.077-.069.155-.1.232l-.023.052,0,0c-.043.1-.087.192-.129.289v0c-.065.149-.127.3-.189.448l-.027.064-.028.066,0,0q-.161.388-.312.779l-.008.021-.028.07v0c-.037.1-.075.192-.111.289h0c-.013.035-.025.069-.038.1q-.086.232-.169.465l0,.009,0,.008h0q-.18.508-.346,1.021h0c-.016.051-.031.1-.047.153q-.046.147-.091.295l-.047.153q-.06.2-.118.4L1.419,26l-.035.121-.011.038c-.041.144-.083.287-.121.431h0l-.019.075q-.1.383-.2.767h0c0,.015-.007.03-.011.045L1,27.58c-.022.091-.043.182-.064.273-.017.071-.034.143-.05.214v0q-.052.231-.1.463c-.009.043-.018.085-.027.127-.021.1-.042.2-.062.3l0,.017c-.053.265-.1.532-.149.8,0,.025-.009.049-.014.074h0q-.1.584-.182,1.171l0,.011-.008.061-.009.068c-.007.055-.015.11-.022.166s-.012.089-.018.133C.245,31.8.2,32.152.17,32.5v0c-.005.055-.01.111-.014.167-.012.128-.022.256-.033.384l0,.037v0q-.024.3-.044.607c-.006.091-.012.181-.017.271,0,0,0,.009,0,.013-.005.093-.012.186-.016.279v0c0,.036,0,.073,0,.11q-.022.483-.03.966c0,.03,0,.061,0,.091s0,.076,0,.114c0,.191,0,.382,0,.573,0,.061,0,.123,0,.184,0,.1,0,.193,0,.29v0c0,.094,0,.189,0,.283v0c0,.043,0,.085,0,.128,0,.115.008.229.012.344,0,.035,0,.07,0,.105v.006c0,.094.007.187.011.281h0c0,.1.012.191.017.287,0,.065.008.13.012.195.025.411.056.823.1,1.234h0c.009.095.021.189.031.284.006.062.013.123.02.185Q.275,40.466.349,41c.007.056.014.112.022.168h0q.06.413.131.826l0,.014h0c.015.087.031.174.047.261l0,.018c.017.093.034.186.051.279q.017.094.035.188.031.163.064.326l.009.041c.019.092.038.184.058.276.081.383.166.765.26,1.147,0,.007,0,.014,0,.021.017.068.034.136.051.2l0,.006c.023.091.048.182.072.273s.047.183.072.274h0c.064.239.132.478.2.716l.028.1h0q.168.569.354,1.135c.024.069.048.139.072.208l.064.185c.043.126.085.252.13.378l0,.007h0c.082.229.168.457.255.684l.027.074h0c.031.082.064.164.1.246l.007.017.016.04c.1.245.195.49.3.733v0l.059.137.057.134c.036.085.073.17.11.255q.081.184.164.369l.072.157c.039.086.079.173.119.259l0,.009c.039.083.076.167.115.25h0l.011.022c.06.126.124.252.186.379l.056.113c.031.063.061.126.093.189l.007.015c.09.179.184.358.277.536l.015.028.012.023.06.115.061.117,0,0c.044.081.088.163.133.244l0,.006.062.11c.1.181.2.362.3.542.02.036.042.07.062.105l.052.088.015.026c.1.165.193.33.291.493l.043.073h0c.084.139.171.275.257.413l.092.147.007.012,0,.006q.134.212.27.421l.046.07.022.033,0,.006c.084.128.167.256.252.382l.05.075.024.035q.219.321.444.637l.047.067h0c.049.068.1.135.149.2l.03.041.048.066.054.073c.1.131.192.264.29.393l0,.006c.049.065.1.129.15.194l.085.11c.1.131.2.263.3.392.052.065.106.129.158.194l.027.033.2.243.125.152,0,0,.069.083,0,0c.068.081.138.161.207.242l.067.078.054.062q.192.223.387.442l.127.141.131.144.088.1,0,0c.076.083.153.165.23.247l.028.03.191.2.087.092q.176.184.355.365l.025.025.041.041.091.091.2.2.063.063,0,0,.09.087,0,0,.064.06q.176.171.355.339l.087.083,0,0,.095.089h0q.345.32.7.629h0l0,0c.114.1.229.2.344.3l0,0h0q.3.256.6.5l.1.08,0,0q.241.2.485.387l.212.165.008.006q.512.4,1.036.771l0,0,.171.121c.175.124.351.247.528.368l0,0q.474.322.957.628l.087.055,0,0c.114.072.228.145.344.216h0l.107.064q.4.243.8.475l.139.079c.117.066.232.133.35.2h0c.114.063.23.125.345.187h0l.038.02q.328.177.66.347h0l.349.177.006,0,.338.167.006,0,.349.166.015.007q.247.116.5.229l.188.084c.117.052.232.105.349.156h0c.1.042.194.081.291.122l.057.024.18.075q.3.123.592.239l.277.108.011,0,.332.126.006,0,.35.127.062.022c.095.034.19.07.285.1h0c.1.033.193.065.289.1a36.226,36.226,0,0,0,3.955,1.1l.036.007q.42.091.842.172l.134.025q.374.07.748.133l.19.03c.232.037.464.073.7.105l.224.03q.334.045.669.084l.244.027q.326.035.652.065l.259.022q.321.027.641.047l.267.016q.319.019.639.031l.268.01c.214.007.429.011.643.015l.264,0q.328,0,.655,0l.252,0c.226,0,.453-.011.68-.02l.227-.008c.244-.011.489-.025.733-.04l.173-.01q.436-.03.872-.071l.033,0q.921-.087,1.839-.222l.13-.021c.256-.039.512-.079.768-.123l.258-.048c.212-.038.424-.077.636-.12.105-.021.21-.044.315-.066.193-.04.386-.081.578-.125.115-.026.229-.054.344-.081.183-.043.365-.087.547-.133l.363-.095c.175-.046.351-.094.526-.143l.374-.108q.256-.075.511-.154l.381-.12q.251-.081.5-.165l.385-.132q.248-.087.495-.178c.128-.047.256-.094.384-.142.165-.063.329-.127.493-.192.127-.05.254-.1.38-.152.165-.068.329-.138.493-.208.125-.053.249-.106.374-.161.167-.074.334-.151.5-.227.12-.055.24-.109.359-.165.173-.082.346-.167.519-.252.112-.055.224-.109.336-.165.19-.1.378-.2.567-.295.093-.049.187-.1.28-.147.2-.108.4-.22.6-.332l.018.01.224-.144c.1-.056.195-.115.292-.173l.241-.142.011-.006q.255-.152.506-.307l.182-.113c.117-.073.234-.145.35-.218s.233-.154.35-.231l.068-.045q.312-.206.619-.418l.012-.008.175-.123q.353-.248.7-.5l.175-.128h0q.172-.129.342-.259l0,0,.35-.271.006,0q.171-.134.339-.27l0,0,.056-.046.278-.227.015-.012.008-.007.284-.237,0,0,.055-.047.083-.072.217-.187.049-.042.035-.03c.1-.084.191-.168.286-.253h0l.01-.01c.147-.131.294-.262.438-.4l.031-.028h0c.075-.07.148-.141.223-.211l.01-.009,0,0L60.828,62l.08-.076.128-.121.006-.006.1-.1,0,0c.048-.046.094-.094.141-.141q.352-.347.692-.7l.08-.084.028-.029.1-.1q.178-.189.353-.381l.187-.206.055-.061c.054-.06.11-.12.164-.181h0l.084-.1q.4-.46.789-.932l.016-.02c.054-.067.11-.132.163-.2l0,0c.063-.078.125-.157.187-.235L64.2,58.3l.09-.116q.3-.381.586-.769l.006-.008.109-.146L65,57.251c.061-.083.122-.166.182-.249v0l.029-.041c.083-.115.164-.232.246-.349.034-.047.068-.095.1-.143l.012-.017c.12-.175.238-.351.355-.527l0-.007c.057-.086.116-.171.172-.258v0c.059-.091.116-.183.175-.275h0l.17-.268.009-.014c.055-.088.111-.176.165-.264l.006-.009c.054-.087.105-.176.158-.263l.033-.055c.049-.083.1-.165.149-.248l.01-.016v0c.1-.17.2-.34.293-.511v0l.054-.095c.035-.062.071-.123.1-.184l0-.006c.048-.088.095-.176.143-.264l.007-.012L67.672,53q.181-.338.355-.679l0-.006c.048-.095.1-.19.144-.285l0-.01c.075-.151.149-.3.221-.455l.051-.107c.046-.1.092-.191.137-.287v0c.043-.092.085-.186.127-.279l0-.007,0-.006.035-.08.091-.2c.043-.1.088-.193.13-.29l0,0c.028-.065.054-.131.082-.2l.012-.028.026-.062c.041-.1.081-.193.122-.29l.007-.018c.037-.09.075-.179.111-.269v0c.028-.07.054-.14.082-.209l.005-.014.091-.233c.017-.043.034-.085.05-.128l0-.008.107-.282h0c.016-.044.032-.087.047-.131l.1-.265c.023-.064.047-.127.069-.191l0-.006c.038-.109.075-.218.113-.327q.043-.127.086-.255l.023-.069q.113-.339.218-.68l.042-.134.012-.038c.025-.084.052-.167.077-.251l0-.006,0-.014c0-.015.009-.031.013-.047.023-.078.044-.157.067-.235.027-.1.055-.192.082-.288s.056-.2.083-.3v0c.026-.1.051-.2.076-.3l.01-.039.032-.125c.011-.044.023-.088.034-.132l0-.006q.036-.143.071-.287v0c.018-.073.035-.147.051-.22l.025-.1c.021-.089.042-.178.062-.267l0-.009c.033-.146.063-.292.094-.439l.03-.144c.02-.1.042-.2.062-.3V42.95c.018-.093.035-.187.053-.28l0-.01c.011-.057.021-.114.031-.171.016-.084.031-.169.047-.253.01-.056.021-.112.031-.168v0c.03-.176.057-.352.085-.528v0l.009-.059c.015-.1.032-.2.047-.3h0q.064-.438.118-.878V40.3c.012-.1.021-.2.032-.295l0-.018c.054-.482.1-.964.136-1.449v0c0-.018,0-.036,0-.055,0-.034,0-.068.006-.1l.008-.135c0-.034,0-.068.006-.1.011-.18.022-.361.03-.541,0-.078.006-.155.009-.233,0-.1.008-.194.011-.292,0,0,0-.008,0-.012,0-.091.006-.182.008-.273v-.007c0-.063,0-.127,0-.19,0-.125,0-.249,0-.374,0-.006,0-.012,0-.017m-20.9,32.426-.131.058.171-.076.289-.133h0l-.328.15m-.847.37h0l.334-.143-.006,0-.324.139m-.848.344-.016.006.32-.127-.006,0-.3.119m-.85.318-.145.05.384-.138-.034.013-.2.076m-.948.323-.143.044.364-.118-.141.048-.08.025m15.9-45.586A29.822,29.822,0,1,1,24.386,8.518,29.822,29.822,0,0,1,63.459,24.393M51.9,68.226l.048-.023-.042.021-.006,0m.137-.067L52.354,68l-.135.07-.182.089m.926-.473c.108-.057.215-.116.322-.175-.08.043-.159.089-.239.131l-.083.043" transform="translate(0 0)" fill="#fff"></path><path id="Trazado_22106" data-name="Trazado 22106" d="M215.2,144.332v.219h.282v.832h.242v-.832H216v-.219h-.8Z" transform="translate(-155.78 -104.48)" fill="#fff"></path><path id="Trazado_22107" data-name="Trazado 22107" d="M219.413,144.333h-.256l-.147.708-.149-.708h-.328v1.051h.229v-.638l.128.638h.231l.132-.642v.642h.229v-1.051Z" transform="translate(-158.192 -104.481)" fill="#fff"></path><path id="Trazado_22108" data-name="Trazado 22108" d="M50.716,153.686H47.57v-2.1h3.668v1.241h1.514v-.675c0-1.485-.552-2.01-2.145-2.01H48.135c-1.629,0-2.133.5-2.133,2.155v.755c0,1.655.5,2.156,2.133,2.156h3.142v2.281l-3.663.009V156.1L46,156.112v.7c0,1.629.524,2.154,2.154,2.154h2.56c1.635,0,2.138-.506,2.138-2.164v-.959c0-1.633-.523-2.158-2.138-2.158" transform="translate(-33.3 -108.684)" fill="#fff" fill-rule="evenodd"></path><path id="Trazado_22109" data-name="Trazado 22109" d="M160.89,150.14v1.444h2.877v7.382h1.7v-7.382h2.884V150.14Z" transform="translate(-116.465 -108.684)" fill="#fff" fill-rule="evenodd"></path><path id="Trazado_22110" data-name="Trazado 22110" d="M193.945,153.686h-3.152v-2.1h3.679v1.241h1.5v-.675c0-1.485-.564-2.01-2.14-2.01h-2.49c-1.616,0-2.115.5-2.115,2.155v.755c0,1.655.5,2.156,2.115,2.156h3.145v2.281h-3.974v-1.375H188.9v.69c0,1.639.533,2.164,2.148,2.164h2.9c1.635,0,2.135-.506,2.135-2.164v-.959c0-1.633-.513-2.158-2.135-2.158" transform="translate(-136.738 -108.684)" fill="#fff" fill-rule="evenodd"></path><path id="Trazado_22111" data-name="Trazado 22111" d="M79.115,150.141H74.166v8.826H75.88v-3.321h3.235c1.347,0,1.948-.553,1.948-1.8v-1.91c0-1.241-.6-1.794-1.948-1.794m.228,2.142v1.191c0,.65-.232.737-.788.737H75.88v-2.674h2.674c.616,0,.788.157.788.746" transform="translate(-53.688 -108.684)" fill="#fff" fill-rule="evenodd"></path><path id="Trazado_22112" data-name="Trazado 22112" d="M107.682,150.1h-3.444c-1.636,0-2.151.534-2.151,2.163v4.511c0,1.626.515,2.164,2.151,2.164h3.444c1.625,0,2.121-.518,2.121-2.164v-4.511c0-1.652-.5-2.163-2.121-2.163m-3.878,1.45h4.31v5.9H103.8Z" transform="translate(-73.9 -108.655)" fill="#fff" fill-rule="evenodd"></path><path id="Trazado_22113" data-name="Trazado 22113" d="M138.048,155.645h.861c1.356,0,1.948-.553,1.948-1.8v-1.91c0-1.241-.592-1.794-1.948-1.794H133.97v8.826h1.7v-3.321h.235l3.48,3.321h2.568Zm.3-1.407h-2.672v-2.7h2.672c.547,0,.777.1.777.728v1.24c0,.631-.2.734-.777.734" transform="translate(-96.979 -108.684)" fill="#fff" fill-rule="evenodd"></path><path id="Trazado_22114" data-name="Trazado 22114" d="M92.523,83.5h-5.4l-2.843-4.5H75.83l2.842-4.5H81.44L78.219,69.4,69.335,83.5H63.929v0h-18l5.688-8.993H47.439l2.842-4.5H67.7l-2.847,4.5h-7.81l-2.878,4.5H66.729L78.217,60.869ZM74.437,61.029H55.951l-2.827,4.494,18.48-.01Z" transform="translate(-33.247 -44.062)" fill="#fff"></path><rect id="Rect&#xE1;ngulo_2141" data-name="Rect&#xE1;ngulo 2141" width="71.957" height="71.956" transform="translate(0 0)" fill="none"></rect></g></g></svg>