<svg xmlns="http://www.w3.org/2000/svg" xmlns:xlink="http://www.w3.org/1999/xlink" width="127" height="73" viewBox="0 0 127 73"><defs><clipPath id="clip-path"><rect id="Rect&#xE1;ngulo_2153" data-name="Rect&#xE1;ngulo 2153" width="127" height="73" transform="translate(-3585 -13448)" fill="none" stroke="#707070" stroke-width="1"></rect></clipPath><clipPath id="clip-path-2"><rect id="Rect&#xE1;ngulo_2137" data-name="Rect&#xE1;ngulo 2137" width="127" height="48.456" fill="none"></rect></clipPath></defs><g id="Logo-Cedimed" transform="translate(3585 13448)" clip-path="url(#clip-path)"><g id="Grupo_5382" data-name="Grupo 5382" transform="translate(-3585 -13436)"><g id="Grupo_5381" data-name="Grupo 5381" transform="translate(0 0)" clip-path="url(#clip-path-2)"><path id="Trazado_22019" data-name="Trazado 22019" d="M66.286,61.654c0,.754.049.754-.656.591A8.361,8.361,0,0,1,61.544,47.73c.485-.449.274-.434.931-.072a6.9,6.9,0,0,1,3.791,6.164c.048,1.3.021,6.349.02,7.832" transform="translate(-21.691 -17.521)" fill="#fff"></path><path id="Trazado_22020" data-name="Trazado 22020" d="M100.2,65.984c0,.542.052.532-.318.531-.733,0-.824.1-.816-.4-.023-.615.043-.62-.594-.275a4.22,4.22,0,0,1-2.89.606,2.2,2.2,0,0,1-2.033-2.239c-.062-1.68-.024-3.364-.049-5.047,0-.55,0-.432.8-.44.616-.006.614-.014.6.486-.032,1.431-.017,2.863-.009,4.294a1.652,1.652,0,0,0,2.275,1.767c1.312-.313,1.661-.757,1.661-2.108,0-1.256,0-2.427-.015-3.767,0-.739.008-.69.716-.7.686-.011.686,0,.686.734,0,1.108-.015,5.449-.016,6.554" transform="translate(-34.57 -21.701)" fill="#fff"></path><path id="Trazado_22021" data-name="Trazado 22021" d="M182.9,65.533a5.048,5.048,0,0,1-3.644.881,2.041,2.041,0,0,1-1.755-1.648,55.485,55.485,0,0,1-.152-5.708c-.007-.388.015-.367.831-.349.519.011.517,0,.531.526-.017,1.179-.008,3.74-.005,3.841.028.826-.047,1.7.913,2.125a2.97,2.97,0,0,0,2.812-.63.971.971,0,0,0,.27-.819c0-1.456.021-2.912-.012-4.368-.013-.638,0-.683.691-.675.715-.008.715-.008.7.676-.028,2.108,0,4.218-.02,6.326-.018.817.026.817-.386.808-.7-.009-.656.052-.728-.633-.018-.1-.028-.185-.047-.354" transform="translate(-65.569 -21.703)" fill="#fff"></path><path id="Trazado_22022" data-name="Trazado 22022" d="M133.571,62.6c0-1.1-.006-2.208.006-3.312-.021-.55-.021-.548.3-.549.843,0,.731,0,.734.4,0,.783-.108.713.653.225a3.838,3.838,0,0,1,2.961-.531,2.269,2.269,0,0,1,2.009,2.278c.054,1.654.01,3.312.036,4.968,0,.451,0,.444-.789.447-.608,0-.611.009-.6-.488,0-1.317.019-2.861.009-4.291a1.648,1.648,0,0,0-2.2-1.8,1.781,1.781,0,0,0-1.739,2.046c0,1.33.011,2.685.015,3.989,0,.55,0,.55-.7.556s-.705-.013-.705-.551c0-1.069.014-2.258.014-3.387" transform="translate(-49.38 -21.716)" fill="#fff"></path><path id="Trazado_22023" data-name="Trazado 22023" d="M150.147,58.752c.512.04,1.257.132,2,.256.693.115.623.031.457.983-.064.352-.056.278-.634.135a8.447,8.447,0,0,0-2.848-.187c-.54.061-1.05.244-1.172.879s.286,1.121,1.041,1.181c.576.046,1.157,0,1.735.035a2.069,2.069,0,0,1,2.193,2.02,2.094,2.094,0,0,1-1.867,2.333,9.221,9.221,0,0,1-3.742-.147c-.67-.137-.554-.078-.382-.967.069-.335.016-.313.587-.149a7.732,7.732,0,0,0,2.694.23c.873-.062,1.373-.5,1.335-1.128s-.495-.951-1.373-.971c-.5-.011-1.009.016-1.51-.02a2.033,2.033,0,0,1-2.043-2.008,2.006,2.006,0,0,1,1.573-2.252,5.9,5.9,0,0,1,1.952-.224" transform="translate(-54.205 -21.721)" fill="#fff"></path><path id="Trazado_22024" data-name="Trazado 22024" d="M73.124,55.588a6.183,6.183,0,0,1,.161-2.26,4.2,4.2,0,0,1,1.5-2.084c.433-.36.321-.458.771.054a4.453,4.453,0,0,1-1.641,7.273c-.776.288-.784.358-.776-.531s-.013-1.657-.013-2.453" transform="translate(-27.03 -18.835)" fill="#fff"></path><path id="Trazado_22025" data-name="Trazado 22025" d="M13.76,64.621c0,1.744-.7,1.934-1.993,2.113a3.037,3.037,0,0,1-3.242-1.85,3.928,3.928,0,0,1,.834-4.307,3.778,3.778,0,0,1,3.973-.388c.369.208.526.234.547.452a.794.794,0,0,1-.207.475c-.081.11-.145.083-.4-.055a3.364,3.364,0,0,0-1.267-.449C10,60.407,8.714,62.147,9.345,64.221a2.291,2.291,0,0,0,2.808,1.648c.691-.269.637-.129.666-.8,0-.149.032-.952.032-1.053,0-.4.064-.325-1.1-.348-.669-.008-.669.007-.674-.361,0-.44-.012-.427.629-.419l1.9.017c.188,0,.156,0,.151,1.711" transform="translate(-3.04 -22.108)" fill="#fff"></path><path id="Trazado_22026" data-name="Trazado 22026" d="M171.975,54.914c-.016-.585,0-.573.7-.573s.71,0,.709.562q-.043,4.735,0,9.469c0,.614,0,.519-.735.534-.671-.015-.675.024-.664-.523.031-1.6.038-7.917,0-9.469" transform="translate(-63.583 -20.091)" fill="#fff"></path><path id="Trazado_22027" data-name="Trazado 22027" d="M114.008,59.635a4.131,4.131,0,0,1,1.911-.879c.263-.039.555-.076.5.317-.041.291.263.736-.314.838a5.054,5.054,0,0,0-.734.161,1.4,1.4,0,0,0-1.182,1.634c0,1.38-.031,2.76.015,4.138.02.6-.208.684-.739.7-.583.014-.712-.177-.7-.727.032-2.106,0-4.213.025-6.32,0-.263-.245-.682.306-.774.5-.084.749.113.8.6a1.61,1.61,0,0,0,.112.314" transform="translate(-41.68 -21.703)" fill="#fff"></path><path id="Trazado_22028" data-name="Trazado 22028" d="M27.592,67.022a3.043,3.043,0,0,1-1.361.78,1.508,1.508,0,0,1-1.813-1.085,21.561,21.561,0,0,1-.13-3.674c.021-.338.021-.315.5-.3.389.013.384-.009.384.411-.008.853-.016,1.706.006,2.559.014.535.083,1.089.71,1.278a1.285,1.285,0,0,0,1.374-.582.8.8,0,0,0,.191-.7c0-.8-.006-1.606,0-2.409,0-.568.007-.568.483-.568.425,0,.423.028.419.609,0,1.255.009,2.509-.007,3.763.011.64.011.635-.3.634-.479,0-.479.022-.452-.719" transform="translate(-8.975 -23.195)" fill="#fff"></path><path id="Trazado_22029" data-name="Trazado 22029" d="M19.7,63.427a1.9,1.9,0,0,1,1.191-.8c.942.005.8-.064.805.566,0,.39,0,.384-.386.333a1.279,1.279,0,0,0-1.463,1.286c-.018.776-.013,1.553,0,2.329-.007.567,0,.567-.482.567-.418,0-.414.04-.413-.611,0-1.252,0-2.473.007-3.756.013-.587.008-.652.288-.638.471.024.455.034.453.722" transform="translate(-7.008 -23.156)" fill="#fff"></path><path id="Trazado_22030" data-name="Trazado 22030" d="M86.746,59.726c0-.669.041-.724-.627-.78-.851-.072-1.694-.222-2.551-.21-2.492.034-3.751,1.266-3.828,3.746-.086,2.74,1.486,4.291,4.1,4.036a4.726,4.726,0,0,0,1.031-.207c.357-.119.443-.006.437.33-.019,1.177-.024,2.355-.035,3.532h1.449c0-4.191,0-6.985.022-10.446m-2.256,5.483a5.483,5.483,0,0,1-1.791.007,1.51,1.51,0,0,1-.421-.154c-.937-.472-1.334-1.675-1.088-3.272a2.008,2.008,0,0,1,1.889-1.852c2.339-.134,2.248-.107,2.242,2.2,0,.226.008,1.5,0,2.1-.011.665-.255.887-.829.973" transform="translate(-29.481 -21.716)" fill="#fff"></path><path id="Trazado_22031" data-name="Trazado 22031" d="M197.4,55.058c0-.746,0-.746-.7-.746-.719,0-.719,0-.7.742.016.551.019,1.1.016,1.656,0,.748-.044.725-.7.579-2.692-.6-5.152.354-4.888,4,.009.125.016.388.032.513.246,1.984,1.1,2.844,2.977,3.048a10.873,10.873,0,0,0,3.517-.318c.4-.088.432-.325.43-.655-.01-1.482.005-7.359.007-8.816m-1.782,8.5a5.608,5.608,0,0,1-2.016.139,1.067,1.067,0,0,1-.147-.031c-1.22-.3-1.782-1.423-1.655-3.3a2.035,2.035,0,0,1,1.988-2.048c.1-.01.2-.009.3-.011,1.932-.035,1.932-.035,1.928,1.87,0,.3,0,2.151,0,2.776,0,.5,0,.5-.4.606" transform="translate(-70.403 -20.08)" fill="#fff"></path><path id="Trazado_22032" data-name="Trazado 22032" d="M123.952,58.061l1.09-.986c-1.2.011-1.786.015-1.786.015s-.253.371-.531.8c-.075.116-.067.12-.693.3a3.645,3.645,0,0,0-1.927,1.148,5.282,5.282,0,0,0-.173,5.088c.93,1.461,2.391,1.577,3.932,1.411a3,3,0,0,0,2.289-1.277,4.425,4.425,0,0,0-2.2-6.491m.487,6.331a2.617,2.617,0,0,1-2.713.011,2.36,2.36,0,0,1-.953-1.95c0-2.437.894-3.327,2.713-3.155.05.005.1.005.149.013a1.868,1.868,0,0,1,1.641,1.631c.179,1.24.34,2.538-.837,3.45" transform="translate(-44.132 -21.102)" fill="#fff"></path><path id="Trazado_22033" data-name="Trazado 22033" d="M165.041,61.06a1.873,1.873,0,0,0-.9-1.721,6.1,6.1,0,0,0-4.759-.269c-.458.121-.453.131-.222.923.07.24.062.179.526.081a8.964,8.964,0,0,1,2.475-.163,1.757,1.757,0,0,1,1.167.455,1.332,1.332,0,0,1,.3,1.326c-.084.353-.049.255-.935.117a5.65,5.65,0,0,0-2.827.248,2.093,2.093,0,0,0-1.341,2.42,1.974,1.974,0,0,0,1.629,1.905,4.45,4.45,0,0,0,3.081-.343c.4-.2.7-.3.881.2.1.28.1.28.708.268.222-.005.233.008.214-.555-.029-.828.014-4.088,0-4.89m-2.167,4.024a3.893,3.893,0,0,1-1.763.274c-.794-.039-1.186-.4-1.216-1.125a1.1,1.1,0,0,1,1.077-1.273,11.081,11.081,0,0,1,2.181,0c.444.04.511.516.511.9-.011.989-.039.9-.789,1.228" transform="translate(-58.608 -21.71)" fill="#fff"></path><path id="Trazado_22034" data-name="Trazado 22034" d="M35.98,62.783a1.959,1.959,0,0,0-2.283.45,2.044,2.044,0,0,0-.179.151c.007-.784.094-.694-.483-.7-.369,0-.34-.042-.335.473.02,1.98-.005,3.959-.005,5.939,0,.462,0,.462.443.462.459,0,.459,0,.457-.509,0-.6-.005-1.2-.005-1.891,1.925,1.384,3.318.061,3.439-1.453.02-.249.02-.5.015-.751a2.2,2.2,0,0,0-1.063-2.171m.006,3.357a1.051,1.051,0,0,1-1.177.828,1.434,1.434,0,0,1-1.192-1.207c-.009-.2-.028-.422-.029-.623a1.606,1.606,0,0,1,.291-1.186,1.414,1.414,0,0,1,1.406-.528c.621.17.734.713.821,1.232a2.891,2.891,0,0,1-.12,1.484" transform="translate(-12.088 -23.137)" fill="#fff"></path><path id="Trazado_22035" data-name="Trazado 22035" d="M43.116,62.588a2.353,2.353,0,0,0-2.531,2.537c-.05,1.643.8,2.631,2.275,2.657A2.326,2.326,0,0,0,45.3,65.241c.052-1.635-.732-2.585-2.188-2.653m-.144,4.426a1.251,1.251,0,0,1-1.34-.978,2.9,2.9,0,0,1-.06-1.409c.2-.872.7-1.336,1.479-1.291s1.233.555,1.307,1.463c.011.125.014.25.019.375,0,1.191-.48,1.832-1.406,1.839" transform="translate(-15.005 -23.139)" fill="#fff"></path><path id="Trazado_22036" data-name="Trazado 22036" d="M39.383,20.333v0" transform="translate(-14.561 -7.512)" fill="#fff"></path><path id="Trazado_22037" data-name="Trazado 22037" d="M53.779,19.7c0-.008,0-.014,0-.022v.057c0-.013,0-.021,0-.035" transform="translate(-19.882 -7.276)" fill="#fff"></path><path id="Trazado_22038" data-name="Trazado 22038" d="M39.394,20.124c.006-.057.014-.118.026-.2-.011.078-.02.145-.026.2" transform="translate(-14.565 -7.367)" fill="#fff"></path><path id="Trazado_22039" data-name="Trazado 22039" d="M53.773,19.6l-.006,0c0,.015.006.028.006.044Z" transform="translate(-19.879 -7.248)" fill="#fff"></path><path id="Trazado_22040" data-name="Trazado 22040" d="M39.385,20.289c0-.013,0-.033.006-.048,0,.015,0,.034-.006.048" transform="translate(-14.562 -7.484)" fill="#fff"></path><path id="Trazado_22041" data-name="Trazado 22041" d="M39.437,19.921v0" transform="translate(-14.581 -7.365)" fill="#fff"></path><path id="Trazado_22042" data-name="Trazado 22042" d="M18.49,19.683c-.072.023-.144.059-.209.08a20.453,20.453,0,0,1-4.764.935c-5.317.366-8.906-1.376-10.06-5.781a13.851,13.851,0,0,1-.146-6.482A6.872,6.872,0,0,1,8.389,2.923a15.862,15.862,0,0,1,8.42.033c.531.13,1.522.483,1.522.483l.08-2.622s-.56-.1-.661-.122A23.706,23.706,0,0,0,7.813.411,9.025,9.025,0,0,0,.342,7.938a17.173,17.173,0,0,0,.273,7.974A8.643,8.643,0,0,0,5.287,21.8c4.181,1.957,8.5,1.656,12.837.554l.366-.115Z" transform="translate(0 0)" fill="#fff"></path><path id="Trazado_22043" data-name="Trazado 22043" d="M81.489,31.776l-.154.056a.769.769,0,0,0,.154-.056" transform="translate(-30.072 -11.748)" fill="#fff"></path><path id="Trazado_22044" data-name="Trazado 22044" d="M77.9,21.231C77.872,14.956,77.881.173,77.881.173s-2.133-.011-3.006,0c0,0,.022,4.8.022,6.9a11.9,11.9,0,0,0-5.249-.758c-3.581.182-6.05,2.2-6.657,5.536a14.507,14.507,0,0,0,.147,5.977,6.291,6.291,0,0,0,5.882,5.191,25.326,25.326,0,0,0,8.013-.678c.052-.013.1-.028.142-.043l0,0a5.692,5.692,0,0,0,.725-.279v-.794m-2.989-1.246s-.385.146-.445.161a12.041,12.041,0,0,1-4.408.436,4.317,4.317,0,0,1-4.073-3.721,10.566,10.566,0,0,1-.134-4.332,4.176,4.176,0,0,1,3.887-3.612,9.746,9.746,0,0,1,4.605.554c.026.01.568.274.568.274Z" transform="translate(-23.2 -0.062)" fill="#fff"></path><path id="Trazado_22045" data-name="Trazado 22045" d="M49.537,15.631a5.772,5.772,0,0,0-5.158-5.6,13.172,13.172,0,0,0-3.237-.1A6.385,6.385,0,0,0,34.924,15.3a14.745,14.745,0,0,0-.176,4.568,6.967,6.967,0,0,0,5.932,6.578A19.125,19.125,0,0,0,47,26.431c.473-.069,1.808-.423,1.808-.423V23.575l-.724.222a17.974,17.974,0,0,1-5.528.422c-2.742-.153-4.343-1.46-4.8-3.891l-.2-1.222,12,.013s.061-2.541-.013-3.489M37.631,16.682s.048-.552.055-.6c.38-2.6,1.917-3.814,4.728-3.809,2.631,0,4.176,1.373,4.286,3.739l.009.666Z" transform="translate(-12.811 -3.652)" fill="#fff"></path><path id="Trazado_22046" data-name="Trazado 22046" d="M192.614,21.231C192.589,14.956,192.6.173,192.6.173s-2.133-.011-3.006,0c0,0,.022,4.8.022,6.9a11.9,11.9,0,0,0-5.249-.758c-3.581.182-6.05,2.2-6.657,5.536a14.508,14.508,0,0,0,.147,5.977,6.291,6.291,0,0,0,5.882,5.191,25.326,25.326,0,0,0,8.013-.678c.052-.013.1-.028.142-.043l0,0a5.694,5.694,0,0,0,.725-.279v-.794m-2.989-1.246s-.385.146-.445.161a12.041,12.041,0,0,1-4.408.436,4.317,4.317,0,0,1-4.073-3.721,10.566,10.566,0,0,1-.134-4.332,4.176,4.176,0,0,1,3.887-3.612,9.746,9.746,0,0,1,4.605.554c.026.01.568.274.568.274Z" transform="translate(-65.614 -0.062)" fill="#fff"></path><path id="Trazado_22047" data-name="Trazado 22047" d="M164.253,15.631a5.772,5.772,0,0,0-5.158-5.6,13.172,13.172,0,0,0-3.237-.1A6.385,6.385,0,0,0,149.64,15.3a14.745,14.745,0,0,0-.176,4.568,6.967,6.967,0,0,0,5.932,6.578,19.125,19.125,0,0,0,6.317-.016c.473-.069,1.808-.423,1.808-.423V23.575l-.724.222a17.974,17.974,0,0,1-5.528.422c-2.742-.153-4.343-1.46-4.8-3.891l-.2-1.222,12,.013s.061-2.541-.013-3.489m-11.906,1.051s.048-.552.055-.6c.38-2.6,1.917-3.814,4.728-3.809,2.631,0,4.176,1.373,4.286,3.739l.009.666Z" transform="translate(-55.225 -3.652)" fill="#fff"></path><rect id="Rect&#xE1;ngulo_2135" data-name="Rect&#xE1;ngulo 2135" width="2.948" height="16.941" transform="translate(59.381 6.145)" fill="#fff"></rect><rect id="Rect&#xE1;ngulo_2136" data-name="Rect&#xE1;ngulo 2136" width="2.948" height="2.829" transform="translate(59.381 0.113)" fill="#fff"></rect><path id="Trazado_22048" data-name="Trazado 22048" d="M130.456,15.074a4.982,4.982,0,0,0-4.691-5.166,8.067,8.067,0,0,0-5.445,1.377c-.354.239-1.04.719-1.04.719s-.586-.575-.923-.85a6.791,6.791,0,0,0-5.516-1.169A8.152,8.152,0,0,0,108.91,11.9c-.081-.258-.151-.441-.2-.63-.357-1.468-.355-1.448-1.841-1.4-.452.013-.541.187-.541.586.008,4.72,0,16.435,0,16.435h3.01s-.014-8.584-.024-11.739c0-.786-.083-.558.474-1.114a5.752,5.752,0,0,1,2.512-1.481c2.415-.69,4.513.141,4.626,3.047.1,2.7.05,11.288.05,11.288h2.943s-.038-8.173,0-11.739c.008-.786-.085-.589.258-.9a6.963,6.963,0,0,1,2.8-1.717c2.224-.6,4.34.03,4.541,2.923.023.325.04,11.432.04,11.432h2.954s.05-8.126-.061-11.815" transform="translate(-39.313 -3.643)" fill="#fff"></path><path id="Trazado_22049" data-name="Trazado 22049" d="M108.512,58.717h-.841a.3.3,0,0,0-.295.295V66.2a.291.291,0,0,0,.2.275,2.634,2.634,0,0,0,1.03,0,.292.292,0,0,0,.2-.276V59.012a.3.3,0,0,0-.295-.295" transform="translate(-39.7 -21.709)" fill="#fff"></path><path id="Trazado_22050" data-name="Trazado 22050" d="M108.512,54.953h-.841a.3.3,0,0,0-.295.295v.841a.3.3,0,0,0,.295.295h.841a.3.3,0,0,0,.295-.295v-.841a.3.3,0,0,0-.295-.295" transform="translate(-39.7 -20.317)" fill="#fff"></path></g></g></g></svg>