<svg xmlns="http://www.w3.org/2000/svg" xmlns:xlink="http://www.w3.org/1999/xlink" width="152" height="88" viewBox="0 0 152 88"><defs><clipPath id="clip-path"><rect id="Rect&#xE1;ngulo_2147" data-name="Rect&#xE1;ngulo 2147" width="152" height="88" transform="translate(-0.331 -0.417)" fill="none" stroke="#707070" stroke-width="1"></rect></clipPath></defs><g id="Logo-Aguardiente" transform="translate(0.332 0.417)" clip-path="url(#clip-path)"><g id="Grupo_5387" data-name="Grupo 5387" transform="translate(22.794 1.23)"><path id="Trazado_22115" data-name="Trazado 22115" d="M359.4,40.366c35.695.224,71.388-32.627,107.084-30.4V3.131C430.791.907,395.1,33.762,359.4,33.538Z" transform="translate(-359.403 -3.023)" fill="#fff"></path><path id="Trazado_22116" data-name="Trazado 22116" d="M466.487,43.063V36.595C430.957,34.706,394.93,67.188,359.4,66.963V73.8c35.326.222,71.757-32.225,107.084-30.733" transform="translate(-359.403 11.216)" fill="#fff"></path><path id="Trazado_22117" data-name="Trazado 22117" d="M369.57,41.677c-.749.118-.829.381-.735.862.112.589.9.114,1.084,1.1.117.607.006,1.246-2.59,1.36-.746.028-1.9.051-2.115-1.193-.228-1.213.657-.351,1.062-1.689.854-2.8,2.175-6.215,2.164-9.3-.01-1.335.536-1.593,1.478-1.677,1.394-.13,2.145.747,2.861,2.246.739,1.585,2.529,6.387,3.043,7.632.549,1.382,1.206.324,1.436,1.506.264,1.384-2.195,1.719-2.959,1.816-.623.1-2.34.452-2.562-.71-.2-1.042.861-.7.7-1.552-.11-.553-.462-.472-.836-.583-.676.071-1.354.133-2.029.178m1.366-2.24c.436-.09.465-.238.408-.539-.145-.758-.967-2.575-1.22-2.561-.374.034-.749,2.567-.692,2.884.038.207.286.261.507.289.333-.021.664-.044,1-.074" transform="translate(-357.11 8.926)" fill="#fff"></path><path id="Trazado_22118" data-name="Trazado 22118" d="M379.942,40.12a1.617,1.617,0,0,1,2.281,1.287c.482,2.438-2.121,3.985-3.806,4.421-1.07.3-3.6.627-3.93-1.072-.13-.621.277-.819.229-1.063-.042-.225-.654-.388-.828-1.267a1.891,1.891,0,0,1,.792-1.866c.135-.107.307-.185.265-.42-.031-.164-.122-.184-.236-.278a2.429,2.429,0,0,1-1.182-1.8c-.487-2.621,1.716-4.391,3.556-4.922a6.913,6.913,0,0,1,.78-.15,4.856,4.856,0,0,0,.794-.151c.809-.248.609-1.5,1.183-1.692.471-.155,1.15.449,1.253,1.019s-.163.978-.122,1.17a2.74,2.74,0,0,1,.7,1.459,4.49,4.49,0,0,1-3.607,5.062,10.113,10.113,0,0,1-1.4.221.388.388,0,0,0-.27.48c.122.656,1.1.321,1.425.231q1.061-.314,2.122-.67m-.57,3.422a.261.261,0,0,0-.4-.188,9.51,9.51,0,0,1-2.726.552c-.112.037-.071.248-.056.338.15.733,1.325.544,1.787.423.363-.083,1.512-.513,1.392-1.124m-1.215-8.311c-.029-.423-.2-.71-.6-.6-.876.259-.574,2.4-.479,3.152.045.436.211.646.606.552.841-.242.539-2.289.475-3.1" transform="translate(-353.822 8.922)" fill="#fff"></path><path id="Trazado_22119" data-name="Trazado 22119" d="M388.55,34.565a5.133,5.133,0,0,0,.064.865c.071.395.264.462.574.332.358-.134.53-.244.627.241.263,1.381-2.094,3.429-3.019,3.8-.967.4-.819-1.347-1.35-1.139-.335.148-1.3,2.3-2.9,2.8-.858.275-1.443-.188-1.689-1.327a36.058,36.058,0,0,1-.284-3.879c-.032-.489-.006-.961-.527-.858-.313.076-.645.137-.732-.352-.145-.744.606-1.582,1.02-2.019a6.826,6.826,0,0,1,2.3-1.7c.573-.224.841.086.964.784.13.734.148,2.617.2,3.618.008.258-.032,2.192.62,1.934.482-.192.706-1.059.784-1.559.3-1.955-.422-4.181.138-5.176a4.666,4.666,0,0,1,1.941-1.543c.463-.2.9-.207,1.021.432.047.247.07.721.094.965q.08,1.918.155,3.781" transform="translate(-351.503 8.135)" fill="#fff"></path><path id="Trazado_22120" data-name="Trazado 22120" d="M394.255,26.84c.145,1.127.175,2.9.434,4.885a3.952,3.952,0,0,0,.222,1.136c.109.181.215.113.387.047.232-.081.4-.027.453.255.226,1.15-1.787,3.265-2.622,3.673-1.348.658-.981-1.157-1.475-.929-.392.188-.824,2.148-2.385,2.873-1.4.638-2.246-.524-2.469-2-.493-3.269.627-7.205,2.923-8.548,1.028-.62,1.618.073,2.059-.141a2.314,2.314,0,0,0,.524-.566,3.548,3.548,0,0,1,1.2-1.085c.415-.2.686-.13.748.4m-2.709,3.4c-.043-.235-.175-.567-.422-.435-.794.455-1.3,3.668-1.062,4.8.05.268.189.718.5.533.777-.448,1.186-3.975.988-4.9" transform="translate(-348.569 6.89)" fill="#fff"></path><path id="Trazado_22121" data-name="Trazado 22121" d="M397.822,31.66c.409,1.659-.089,2.629-2.152,3.791-.544.308-1.2.442-1.347-.352-.2-1.047-.019-3.564-.31-5.247-.08-.492-.15-.619-.563-.416-.476.231-.738.2-.858-.45-.18-.985.993-1.857,1.5-2.481a4.051,4.051,0,0,1,1.3-1.126c.928-.433.844,1.469,1.332,1.231.436-.211.071-1.9,1.482-2.558.97-.449,1.834.234,2.047,1.325a2.459,2.459,0,0,1-1.072,2.808.834.834,0,0,1-1.167-.257c-.066-.1-.251-.336-.387-.279-.207.094-.149.886-.137,1.055q.163,1.484.331,2.957" transform="translate(-346.231 5.857)" fill="#fff"></path><path id="Trazado_22122" data-name="Trazado 22122" d="M402.634,23.826c.281-.127.182-1.2.134-1.425s-.161-.335-.355-.257c-.11.05-.212.128-.311.17-.3.128-.488,0-.559-.335-.148-.751.467-1.314.978-1.729a11.461,11.461,0,0,1,2.361-1.439c.476-.171.761.036.87.523.026.239.054.48.082.723q.113,1.469.23,2.957.086,1.178.172,2.364.141,1.191.281,2.4c.091.463.147.533.56.406.273-.09.454-.043.539.265.281,1.009-2.124,3.174-2.779,3.507-.725.389-.869-.05-1.1-.688-.045-.161-.179-.4-.369-.3-.307.143-.872,2.21-2.43,2.99-1.47.727-2.107-.311-2.434-1.784-.527-2.485.1-7.072,2.729-8.289.76-.343,1.193.036,1.4-.051m.5,1.931c-.05-.241-.173-.569-.528-.418-.89.39-1.037,3.626-.826,4.56.07.285.18.513.444.368.9-.462,1.1-3.633.909-4.511" transform="translate(-343.942 3.663)" fill="#fff"></path><path id="Trazado_22123" data-name="Trazado 22123" d="M405.582,25.774a8.851,8.851,0,0,0-.053-.951c-.042-.215-.14-.3-.4-.2-.219.093-.585.264-.714-.329-.14-.7.488-1.291.942-1.713a8.749,8.749,0,0,1,2.487-1.663.56.56,0,0,1,.844.472,20.3,20.3,0,0,1,.235,2.339c0,.184.124,2.133.182,2.8.035.321.23.247.476.144.282-.111.5-.181.577.2.267,1.226-1.97,2.989-2.832,3.388-.58.249-1.308.158-1.447-.547a6.64,6.64,0,0,1-.109-.975q-.094-1.5-.187-2.974m-1.2-5.215c-.274-1.31,1.756-2.713,2.729-3.018.546-.177,1.323-.2,1.458.463.232,1.112-1.72,2.642-2.639,2.929-.527.155-1.393.333-1.548-.373" transform="translate(-341.553 3.104)" fill="#fff"></path><path id="Trazado_22124" data-name="Trazado 22124" d="M415.663,19.395c.415,1.79-1.316,3.892-3.016,4.5-.232.076-.6.211-.528.542.1.46.7.522,1.083.383,1.093-.379,1.725-1.551,2.21-1.7a.628.628,0,0,1,.756.462c.18.827-.721,1.685-1.281,2.2a7.434,7.434,0,0,1-2.487,1.582c-1.848.7-3.632.477-4.015-1.726a6.75,6.75,0,0,1,4.665-7.342c1.183-.356,2.319-.2,2.614,1.1m-4.018,3c.038.181.154.415.37.338a2.514,2.514,0,0,0,.7-2.25c-.06-.191-.214-.432-.453-.358-.623.2-.728,1.771-.619,2.27" transform="translate(-339.986 3.4)" fill="#fff"></path><path id="Trazado_22125" data-name="Trazado 22125" d="M419.593,19.76a.431.431,0,0,0-.538-.366c-1.1.265-.782,2.6-.665,3.579.216,1.756-.022,2.259-1.96,2.941-.529.194-1.127.21-1.278-.495-.172-.807.014-3.343-.327-4.623-.068-.3-.215-.445-.539-.351-.05.013-.1.026-.152.037-.3.09-.454-.054-.527-.349-.091-.42.272-.838.56-1.107a7.616,7.616,0,0,1,2.576-1.536c.925-.241.81,1.127,1.284,1.016.373-.105,1.315-1.685,2.631-1.988a1.592,1.592,0,0,1,2.071.993c.243,1.028.119,2.95.327,3.9.137.621.78.077.915.691.246,1.134-1.9,2.317-2.757,2.534a.984.984,0,0,1-1.326-.792,21.474,21.474,0,0,1-.176-2.7c-.039-.466-.081-.928-.119-1.384" transform="translate(-337.884 2.687)" fill="#fff"></path><path id="Trazado_22126" data-name="Trazado 22126" d="M425.039,20.574c.006.717.281,1.112.666,1.049s.576-.41.8-.455c.327-.048.469.235.531.516.265,1.267-2.385,2.766-3.273,2.927a1.43,1.43,0,0,1-1.829-1.206,10.11,10.11,0,0,1-.176-1.516q-.071-1.4-.147-2.756c-.025-.6-.088-.668-.7-.536-.362.081-.581.023-.678-.365a.94.94,0,0,1,.71-1.237c.474-.17.492-.324.543-1.023a1.46,1.46,0,0,1,.462-1.163,5.5,5.5,0,0,1,1.819-.758c.387-.094.613.014.7.383.036.288.124,1.129.179,1.371.1.43.573.18,1.024.074.2-.046.388-.038.444.182a6.448,6.448,0,0,1,.078.663c.026.339.1.66-.31.745-1.053.215-1.059.165-.991,1.539.046.516.094,1.039.141,1.565" transform="translate(-335.264 1.652)" fill="#fff"></path><path id="Trazado_22127" data-name="Trazado 22127" d="M432.341,15.7a3.916,3.916,0,0,1-3.029,4.452c-.214.037-.592.094-.518.449a.973.973,0,0,0,1.076.638c1.1-.137,1.732-1.273,2.219-1.347.317-.054.683.3.753.674.18.978-.729,1.693-1.284,2.1a5.03,5.03,0,0,1-2.485.98c-1.85.194-3.634-.492-4.021-2.665-.57-3.336,1.9-5.917,4.671-6.722,1.192-.325,2.316-.113,2.62,1.438m-4.031,2.719c.04.2.161.45.372.41.422-.071.915-1.454.71-2.243-.067-.215-.221-.485-.462-.433-.62.147-.732,1.736-.619,2.266" transform="translate(-333.367 1.699)" fill="#fff"></path><path id="Trazado_22128" data-name="Trazado 22128" d="M368.724,52.665c-.823.245-.905.524-.813.963.113.539.984-.051,1.172.855.119.593-.022,1.14-2.882,1.944-.819.245-2.1.656-2.323-.577-.219-1.213.745-.6,1.213-2.065.978-3.135,2.491-6.59,2.529-9.557,0-1.3.62-1.569,1.654-1.643,1.54-.135,2.361.711,3.12,2.056.8,1.461,2.7,5.711,3.237,6.761.583,1.18,1.329.208,1.563,1.23.271,1.179-2.456,1.673-3.286,1.867-.693.152-2.59.725-2.824-.319-.2-.932.96-.76.8-1.518-.1-.5-.507-.388-.911-.432q-1.123.216-2.245.435m1.547-2.312c.471-.114.514-.271.462-.539-.147-.67-1.024-2.336-1.312-2.307-.419.061-.861,2.515-.8,2.822.04.187.3.214.56.214l1.09-.19" transform="translate(-357.639 13.79)" fill="#fff"></path><path id="Trazado_22129" data-name="Trazado 22129" d="M379.248,46.939a.451.451,0,0,0-.588-.382c-1.22.316-.918,2.768-.8,3.718.218,1.709-.06,2.175-2.2,2.778-.6.171-1.248.162-1.4-.5-.172-.737.07-3.224-.278-4.629-.073-.325-.231-.5-.577-.428l-.176.04c-.331.066-.5-.115-.574-.443-.1-.462.317-.881.638-1.149a8.591,8.591,0,0,1,2.86-1.579c1.024-.231.875,1.33,1.4,1.194.415-.087,1.482-1.911,2.931-2.322.977-.286,2.03-.009,2.255,1.029.246,1.17.078,3.259.292,4.2.134.628.859,0,.988.607.256,1.133-2.124,2.47-3.078,2.712-.736.178-1.284-.026-1.433-.7a17.1,17.1,0,0,1-.159-2.682c-.032-.485-.064-.972-.1-1.466" transform="translate(-354.146 14.028)" fill="#fff"></path><path id="Trazado_22130" data-name="Trazado 22130" d="M385.233,47.271c-.021.767.293,1.129.7.983s.639-.556.894-.643c.358-.135.522.141.585.419.271,1.281-2.687,3.316-3.666,3.593-1,.3-1.77.053-2-.925a8.7,8.7,0,0,1-.161-1.521q-.057-1.458-.113-2.974c-.024-.68-.085-.735-.752-.526-.4.127-.644.08-.739-.366a1.227,1.227,0,0,1,.8-1.518c.521-.235.543-.413.612-1.281A2.236,2.236,0,0,1,381.948,41a6.207,6.207,0,0,1,2.015-1.143c.418-.16.666-.053.763.4.036.356.12,1.378.176,1.65.1.513.612.141,1.12-.06.222-.084.427-.115.482.138a4.369,4.369,0,0,1,.063.761c.029.386.1.751-.356.922-1.157.432-1.168.385-1.108,1.91.042.569.088,1.13.13,1.689" transform="translate(-351.244 12.607)" fill="#fff"></path><path id="Trazado_22131" data-name="Trazado 22131" d="M386.112,46.312a7.385,7.385,0,0,0-.033-.975c-.042-.211-.152-.289-.439-.187-.252.1-.648.266-.778-.325-.144-.731.555-1.351,1.058-1.82a12.9,12.9,0,0,1,2.776-1.96c.511-.218.8-.037.907.482a21.558,21.558,0,0,1,.214,2.554c0,.208.1,2.276.15,2.956.039.336.246.248.52.131.326-.12.553-.2.634.2.267,1.291-2.216,3.068-3.166,3.382-.644.227-1.436.107-1.58-.562a6.185,6.185,0,0,1-.1-.935q-.078-1.449-.158-2.944m-1.222-5.453c-.279-1.38,1.966-3.127,3.051-3.631.6-.261,1.447-.38,1.583.393.228,1.317-1.928,3.222-2.955,3.566-.569.209-1.526.438-1.679-.328" transform="translate(-349.301 11.434)" fill="#fff"></path><path id="Trazado_22132" data-name="Trazado 22132" d="M389.237,46.1c-.664-3.2,1.359-6.8,4.538-8.366,2.094-1.016,4.054-.688,4.508,1.657a7.846,7.846,0,0,1-4.535,8.474c-2.1.875-4.046.438-4.511-1.766m3.694-4.083a17.941,17.941,0,0,0,.291,3.228c.078.4.26.742.692.562.7-.306.63-1.419.617-1.982a20.828,20.828,0,0,0-.211-3.338c-.082-.41-.256-.828-.736-.606-.693.343-.639,1.539-.653,2.136" transform="translate(-347.606 11.503)" fill="#fff"></path><path id="Trazado_22133" data-name="Trazado 22133" d="M405.7,43.439c.092.537.183.814.643.9.286.044.7.047.778.443.183,1.04-1.46,1.863-2.072,2.149-.112.034-3.741,1.86-4.007.423a.982.982,0,0,1,.527-1.015c.394-.306.418-.485.464-1.032.017-.192.168-2.582-.313-2.343-.422.2-.841,2.332-2.713,3.2-1.572.728-2.568-.222-2.871-1.78-.567-2.926.725-7.538,3.862-9.288,1-.557,1.53-.046,1.941-.261.5-.254,1.208-1.542,1.962-1.928.564-.285.74-.058.859.527.314,3.264.626,6.588.942,10M401.616,37.1c-.064-.336-.259-.587-.6-.423-.933.489-1.426,3.869-1.168,5.293.06.3.2.711.566.542.865-.564,1.447-4.082,1.2-5.411" transform="translate(-344.868 9.63)" fill="#fff"></path><path id="Trazado_22134" data-name="Trazado 22134" d="M412.856,34.8a6.883,6.883,0,0,0,.057.925c.076.419.288.483.633.342.38-.154.587-.255.678.269.265,1.461-2.348,3.734-3.367,4.2-1.073.492-.879-1.465-1.464-1.189-.366.168-1.47,2.627-3.227,3.378-.944.408-1.589-.036-1.848-1.248a39.2,39.2,0,0,1-.229-4.112c-.045-.5-.008-.985-.581-.777-.339.124-.71.252-.8-.228-.138-.727.692-1.732,1.144-2.228a8.924,8.924,0,0,1,2.562-2.061c.63-.3.915-.047,1.046.624.135.7.128,2.615.162,3.67.013.245-.062,2.307.651,1.971.542-.249.786-1.194.884-1.729.36-2.092-.39-4.255.23-5.269a5.419,5.419,0,0,1,2.154-1.653c.521-.227,1-.259,1.118.355.049.239.062.7.091.939q.052,1.883.1,3.819" transform="translate(-342.213 8.248)" fill="#fff"></path><path id="Trazado_22135" data-name="Trazado 22135" d="M418.916,28.829c.422,2.193-1.517,4.7-3.4,5.414-.237.1-.659.247-.58.648.1.552.757.634,1.171.48,1.213-.449,1.929-1.854,2.467-2.025a.683.683,0,0,1,.808.579c.186,1.013-.812,2.018-1.433,2.637a8.2,8.2,0,0,1-2.762,1.851c-2.038.8-4,.5-4.383-2.081A8.458,8.458,0,0,1,416.05,27.5c1.324-.45,2.564-.261,2.866,1.334m-4.476,3.614c.042.221.17.5.4.4.465-.17,1.032-1.85.809-2.7-.053-.234-.226-.514-.489-.425-.687.247-.83,2.128-.719,2.726" transform="translate(-339.022 7.291)" fill="#fff"></path><path id="Trazado_22136" data-name="Trazado 22136" d="M423.211,30.633c-.063-.332-.263-.553-.585-.487-1.218.269-.908,3.14-.8,4.342.215,2.152-.064,2.742-2.195,3.49-.6.219-1.256.2-1.408-.648-.178-.99.071-4.076-.282-5.652-.068-.363-.218-.547-.57-.439l-.166.051c-.339.1-.517-.071-.589-.44a1.729,1.729,0,0,1,.647-1.347,7.9,7.9,0,0,1,2.86-1.82c1.018-.259.869,1.427,1.39,1.31.416-.105,1.488-2.014,2.946-2.277a1.839,1.839,0,0,1,2.244,1.437c.245,1.3.071,3.637.286,4.8.137.762.859.177.992.931.256,1.392-2.119,2.6-3.074,2.813a1.14,1.14,0,0,1-1.443-1.066,29.574,29.574,0,0,1-.15-3.295c-.036-.573-.071-1.14-.106-1.706M424,22.618c.664-.134,1.107.073,1.242.782a1.884,1.884,0,0,1-1.371,2.359c-.986.178-2.9-.554-3.57-.381-.166.047-.144.178-.131.338a.6.6,0,0,1-.061.581,1.155,1.155,0,0,1-.632.4c-.608.161-1.1-.006-1.225-.663a1.955,1.955,0,0,1,1.521-2.465c1.27-.322,2.78.379,3.234.289.147-.028.12-.145.1-.269-.061-.573.4-.881.894-.976" transform="translate(-336.688 5.291)" fill="#fff"></path><path id="Trazado_22137" data-name="Trazado 22137" d="M424.661,31.5c-.666-3.637,1.341-6.543,4.535-6.754a4.243,4.243,0,0,1,4.511,3.8c.666,3.855-1.369,6.387-4.552,6.484a4.162,4.162,0,0,1-4.495-3.534m3.7-2.869a20.675,20.675,0,0,0,.276,3.422c.078.452.26.9.7.885.7-.02.622-1.2.62-1.779a24.872,24.872,0,0,0-.218-3.472c-.082-.443-.253-.936-.721-.908-.706.031-.651,1.254-.657,1.851" transform="translate(-333.539 6.208)" fill="#fff"></path></g></g></svg>