<svg xmlns="http://www.w3.org/2000/svg" xmlns:xlink="http://www.w3.org/1999/xlink" width="174" height="100" viewBox="0 0 174 100"><defs><clipPath id="clip-path"><rect id="Rect&#xE1;ngulo_2149" data-name="Rect&#xE1;ngulo 2149" width="174" height="100" transform="translate(0)" fill="none" stroke="#707070" stroke-width="1"></rect></clipPath></defs><g id="Logo-Betplay" clip-path="url(#clip-path)"><g id="Grupo_5389" data-name="Grupo 5389" transform="translate(8.488 1.371)"><path id="Trazado_22152" data-name="Trazado 22152" d="M153.34,71.014q-2.644,0-5.261-.166a36.806,36.806,0,0,1-5.449-.775V38.485a46.061,46.061,0,0,1,4.869-.635q2.642-.209,4.913-.211a33.117,33.117,0,0,1,5.633.447,13.281,13.281,0,0,1,4.428,1.526,7.962,7.962,0,0,1,2.9,2.844,8.42,8.42,0,0,1,1.042,4.349,6.911,6.911,0,0,1-3.708,6.158,7.616,7.616,0,0,1,4.174,3.2,9.317,9.317,0,0,1,1.111,4.561,8.8,8.8,0,0,1-3.685,7.708q-3.685,2.587-10.965,2.587M149.677,50.8H153.2a9.7,9.7,0,0,0,4.775-.868,3.023,3.023,0,0,0,1.438-2.8,2.88,2.88,0,0,0-1.486-2.773,9.392,9.392,0,0,0-4.357-.8c-.618,0-1.281.007-1.994.022s-1.344.055-1.9.117Zm0,5.6V64.81c.526.062,1.1.11,1.714.14s1.3.048,2.039.048a12.4,12.4,0,0,0,5.239-.94,3.494,3.494,0,0,0,1.994-3.479A3.425,3.425,0,0,0,159,57.357a9.671,9.671,0,0,0-4.774-.962Z" transform="translate(-142.63 18.227)" fill="#fff"></path><path id="Trazado_22153" data-name="Trazado 22153" d="M160.9,55.945a15.324,15.324,0,0,1,1-5.756,12.372,12.372,0,0,1,2.62-4.114,10.836,10.836,0,0,1,3.732-2.489,11.547,11.547,0,0,1,4.335-.849,10.693,10.693,0,0,1,8.205,3.221q3.015,3.219,3.014,9.472c0,.408-.015.852-.045,1.339s-.063.917-.094,1.293H168a4.662,4.662,0,0,0,1.994,3.432,7.917,7.917,0,0,0,4.729,1.271,19.877,19.877,0,0,0,3.732-.353,14.034,14.034,0,0,0,2.991-.868l.927,5.686a9.427,9.427,0,0,1-1.484.563,18.37,18.37,0,0,1-2.061.493q-1.137.216-2.435.356a24.565,24.565,0,0,1-2.6.14,15.152,15.152,0,0,1-5.725-.989,11.146,11.146,0,0,1-4.035-2.7,10.788,10.788,0,0,1-2.364-4.067,16.3,16.3,0,0,1-.766-5.079m16.228-2.678a7.36,7.36,0,0,0-.3-1.74,4.321,4.321,0,0,0-.786-1.5,4.255,4.255,0,0,0-1.345-1.084,4.331,4.331,0,0,0-2.017-.422,4.587,4.587,0,0,0-1.992.4,4.124,4.124,0,0,0-1.391,1.058,4.773,4.773,0,0,0-.859,1.529A10.13,10.13,0,0,0,168,53.268Z" transform="translate(-134.153 20.695)" fill="#fff"></path><path id="Trazado_22154" data-name="Trazado 22154" d="M178.132,39.4l6.908-1.127v7.285h8.3v5.829h-8.3v8.7a6.99,6.99,0,0,0,.764,3.525q.764,1.314,3.083,1.315a13.175,13.175,0,0,0,2.3-.211,11.674,11.674,0,0,0,2.155-.589l.975,5.453a19.032,19.032,0,0,1-2.783.892,15.976,15.976,0,0,1-3.755.377,12.193,12.193,0,0,1-4.683-.775,7.365,7.365,0,0,1-2.966-2.161,8.1,8.1,0,0,1-1.555-3.362,20.18,20.18,0,0,1-.439-4.374Z" transform="translate(-126.16 18.534)" fill="#fff"></path><path id="Trazado_22155" data-name="Trazado 22155" d="M201.044,37.64q7.185,0,11.034,2.562t3.849,8.389q0,5.88-3.894,8.485t-11.127,2.608h-2.272v10.9H191.4v-32.1a40.315,40.315,0,0,1,5.01-.66q2.642-.187,4.635-.187m.464,6.25c-.527,0-1.042.016-1.555.047s-.95.062-1.32.095v9.4h2.272a12.159,12.159,0,0,0,5.657-1.035q1.9-1.031,1.9-3.853a4.662,4.662,0,0,0-.489-2.258,3.749,3.749,0,0,0-1.391-1.432,6.135,6.135,0,0,0-2.2-.75,17.753,17.753,0,0,0-2.874-.215" transform="translate(-120.005 18.228)" fill="#fff"></path><path id="Trazado_22156" data-name="Trazado 22156" d="M219.314,72.21a17.078,17.078,0,0,1-4.892-.658,7.217,7.217,0,0,1-2.964-1.717,5.674,5.674,0,0,1-1.484-2.678,14.62,14.62,0,0,1-.394-3.55V36.393l6.907-1.13V62.2a9.259,9.259,0,0,0,.141,1.694,2.96,2.96,0,0,0,.531,1.271,2.854,2.854,0,0,0,1.136.845,6.1,6.1,0,0,0,2,.422Z" transform="translate(-111.571 17.076)" fill="#fff"></path><path id="Trazado_22157" data-name="Trazado 22157" d="M228.229,42.737a15.838,15.838,0,0,1,5.1.707,7.93,7.93,0,0,1,3.268,2.02,7.483,7.483,0,0,1,1.739,3.2,15.982,15.982,0,0,1,.509,4.183V67.416q-1.482.332-4.125.776a39.2,39.2,0,0,1-6.4.448,19.819,19.819,0,0,1-4.288-.426,9.193,9.193,0,0,1-3.316-1.386,6.319,6.319,0,0,1-2.131-2.513,8.793,8.793,0,0,1-.742-3.809,7.29,7.29,0,0,1,.858-3.666,6.7,6.7,0,0,1,2.294-2.4,10.334,10.334,0,0,1,3.292-1.293,18.355,18.355,0,0,1,3.849-.4,21.847,21.847,0,0,1,2.386.116,10.644,10.644,0,0,1,1.694.306v-.659a3.906,3.906,0,0,0-1.067-2.868,5.124,5.124,0,0,0-3.708-1.081,23.323,23.323,0,0,0-3.478.258,14.878,14.878,0,0,0-2.967.729l-.88-5.64q.6-.191,1.506-.4c.6-.142,1.259-.266,1.972-.376s1.46-.2,2.247-.283,1.584-.119,2.388-.119m.556,20.5q1.019,0,1.947-.046a13.066,13.066,0,0,0,1.484-.141V57.734q-.417-.093-1.252-.19a14.205,14.205,0,0,0-1.53-.092,13.471,13.471,0,0,0-1.833.119,4.732,4.732,0,0,0-1.506.442,2.619,2.619,0,0,0-1.02.9,2.505,2.505,0,0,0-.37,1.41,2.412,2.412,0,0,0,1.089,2.278,5.936,5.936,0,0,0,2.991.635" transform="translate(-107.737 20.695)" fill="#fff"></path><path id="Trazado_22158" data-name="Trazado 22158" d="M257.851,43.181q-2.095,7.147-4.37,13.4t-4.973,12.128a27.793,27.793,0,0,1-1.95,3.593,11.1,11.1,0,0,1-2.137,2.446,7.486,7.486,0,0,1-2.623,1.41,11.751,11.751,0,0,1-3.412.447,13.782,13.782,0,0,1-3-.307,13.4,13.4,0,0,1-2.25-.678l1.2-5.594a12.127,12.127,0,0,0,1.9.516,10.8,10.8,0,0,0,1.764.14,3.842,3.842,0,0,0,2.852-1.008,8.2,8.2,0,0,0,1.694-2.8q-2.367-4.7-4.733-10.555a132.236,132.236,0,0,1-4.452-13.137H240.7q.466,1.835,1.094,3.973t1.328,4.325c.466,1.455.94,2.875,1.42,4.251s.94,2.633,1.375,3.763q.6-1.694,1.256-3.763c.435-1.376.861-2.8,1.279-4.251s.824-2.9,1.211-4.325.738-2.75,1.048-3.973Z" transform="translate(-100.64 20.91)" fill="#fff"></path><path id="Trazado_22159" data-name="Trazado 22159" d="M191.382,5.005q-1.267-.109-2.512-.189v0s-.2-.015-.487-.028c-.12-.009-.242-.019-.362-.025l0,0q-.134,0-.272-.013a65.736,65.736,0,0,0,4.253,9c15.2-.237,27.336.934,27.394,3.889.035,1.714-4.04,3.341-10.511,4.521-.056.089-.11.18-.164.269,7.826-.919,13.026-3.034,13.273-5.909.414-4.836-13.294-9.989-30.615-11.513" transform="translate(-121.697 2.301)" fill="#fff"></path><path id="Trazado_22160" data-name="Trazado 22160" d="M187.184,1.918c1.312-.877,4.446,1.327,8.438,5.584.157.016.312.031.467.05-4.632-5.594-8.827-8.517-11.225-7.265-4.254,2.222-1.243,16.728,6.724,32.4.294.579.593,1.15.892,1.716v0s.285.527.619,1.153c.026.048.051.095.076.141.066.122.135.248.2.371a87.731,87.731,0,0,0,5.027-8.812c-8.22-12.811-13.636-23.721-11.218-25.339" transform="translate(-123.933 0)" fill="#fff"></path><path id="Trazado_22161" data-name="Trazado 22161" d="M203.281,12.267c-6.267,14.256-12.53,25.122-15.219,23.919-1.606-.715-1.26-5.449.586-12.279-.041-.089-.082-.175-.124-.263-2.7,7.932-3.1,13.916-.559,15.4,4.147,2.424,14.544-8,23.224-23.272.526-.925,1.031-1.848,1.52-2.762-2.62-.367-5.823-.612-9.426-.745" transform="translate(-122.389 5.94)" fill="#fff"></path></g></g></svg>