<svg xmlns="http://www.w3.org/2000/svg" xmlns:xlink="http://www.w3.org/1999/xlink" width="152" height="88" viewBox="0 0 152 88"><defs><clipPath id="clip-path"><rect id="Rect&#xE1;ngulo_2139" data-name="Rect&#xE1;ngulo 2139" width="152" height="88" transform="translate(0 -0.417)" fill="none" stroke="#707070" stroke-width="1"></rect></clipPath></defs><g id="Logo-Tigo" transform="translate(0 0.417)" clip-path="url(#clip-path)"><g id="Grupo_5384" data-name="Grupo 5384" transform="translate(15.887 0.706)"><path id="Trazado_22070" data-name="Trazado 22070" d="M274.55,18.274c1.2-1.378,2.817-2.469,4.284-2.469h2.121v8.179H293.7V27.7c0,1.894-1.676,4.3-5.469,4.3h-7.28V46.167c0,4.707,2.112,6.558,5.766,6.558,2.964,0,5.233-.4,6.663-1.3h.319v3.245c0,3.672-2.717,6.034-8.061,6.034-9.266,0-13.78-4.968-13.78-13.461V25.465c0-3.546.668-4.892,2.687-7.191" transform="translate(-271.863 -4.573)" fill="#fff"></path><path id="Trazado_22071" data-name="Trazado 22071" d="M298.693,62.895c-7.138,0-11.032-3.979-11.032-11.29V27.08H290.3c4.04,0,6.525,2.148,6.525,6.719v16.92c0,3.648,1.58,4.773,5.6,4.773h1.715v1.959c0,3.9-1.574,5.444-5.443,5.444m-6.538-39.183a5.328,5.328,0,0,1-5.3-5.319,5.246,5.246,0,0,1,5.3-5.223,5.348,5.348,0,0,1,5.423,5.223,5.43,5.43,0,0,1-5.423,5.319" transform="translate(-259.18 -6.832)" fill="#fff"></path><path id="Trazado_22072" data-name="Trazado 22072" d="M318.249,39.411c0,9.586,6.34,18.282,17.417,18.282,11.865,0,18.225-8.7,18.225-19.552,0-9.616-6.361-18.346-17.42-18.346-11.881,0-18.221,8.73-18.221,19.616m26.16,0c0,5.921-2.6,10.206-7.939,10.206-6.039,0-8.725-4.285-8.725-11.476,0-6,2.686-10.31,7.92-10.31,6.008,0,8.743,4.307,8.743,11.58" transform="translate(-232.631 -1.155)" fill="#fff"></path><path id="Trazado_22073" data-name="Trazado 22073" d="M319.212,20.584a8.216,8.216,0,0,1,1.233-3.793c1.936-3.069,8.118-7.035,15-7.035,6.768,0,12.531,3.123,15.37,6.8a8.112,8.112,0,0,1,1.434,4.181v3.8h-.183a20.034,20.034,0,0,0-15.887-7.633c-7.963,0-13.8,3.481-16.789,7.629h-.181Z" transform="translate(-231.817 -9.756)" fill="#fff"></path><path id="Trazado_22074" data-name="Trazado 22074" d="M352.738,43.707h-.268c-4.48,6.89-13.238,12.746-25.293,12.746-11.08,0-18.624-5.778-23.964-12.772h-.277v4.53a14.273,14.273,0,0,0,2.15,6.933c4.251,6.149,12.952,11.3,23.186,11.3,10.371,0,19.717-6.532,22.618-11.7a15.446,15.446,0,0,0,1.846-6.316Z" transform="translate(-245.581 19.307)" fill="#fff"></path><path id="Trazado_22075" data-name="Trazado 22075" d="M326.946,39.207h-4.9l.2.845a21.888,21.888,0,0,1,.576,5.1v2.917c0,1.43-.312,2.757-4,2.757-5.338,0-11.724-2.126-11.724-12.07,0-6.313,4.987-10.943,11.8-10.943,4.319,0,8.422,1.14,10.744,2.941l.175.139h1.211V27.755c0-3.793-3.513-7.826-11.2-7.826-13.051,0-22.186,8.171-22.186,19.842,0,12.456,10.213,18.945,20.279,18.945,9.234,0,13.723-3.2,13.723-9.725V43.215c0-2.076-2.246-4.009-4.686-4.009" transform="translate(-250.069 -1.041)" fill="#fff"></path></g></g></svg>